{"title":"Lewis S08E05 x264 RB58.mp4","uid":11399460,"size":521404032,"categoryP":"video","categoryS":"tv_shows","magnet":"?xt=urn:btih:74041e3fdef6be921bc8482d606e2d902a4f733e&amp;dn=Lewis+S08E05+x264+RB58.mp4&amp;tr=udp%3A%2F%2Ftracker.openbittorrent.com%3A80&amp;tr=udp%3A%2F%2Fopen.demonii.com%3A1337&amp;tr=udp%3A%2F%2Ftracker.coppersurfer.tk%3A6969&amp;tr=udp%3A%2F%2Fexodus.desync.com%3A6969","seeders":14,"leechers":2,"uploader":"RedBaron58","files":1,"time":1415406592,"description":"Lewis S08E05 Beyond Good and Evil Part 1 - Crime Drama x264 mp4\n\naka: Inspector Lewis\n\n &lt;a href=&quot;\nhttp://www.imdb.com/title/tt0874608/&quot; rel=&quot;nofollow&quot; target=&quot;_NEW&quot;&gt;\nhttp://www.imdb.com/title/tt0874608/&lt;/a&gt;\n\n\nAbout the Episode:\nA case from 13 years earlier returns to haunt Lewis when the evidence comes under review. \nGraham Lawrie was incarcerated in a secure psychiatric hospital after being found guilty of the murders \nof three police officers, but now the findings of the forensics lab have been called into question \nand an appeal has been launched. \nAs Lawrie remains locked up ahead of his day in court, PC Mark Travis is lured to an isolated location \nwith a hoax call and falls victim to a killer who uses the same weapon as that used in the \noriginal murders.\n\n\nThank you for your kind comments and thumbs ups on my other torrents, your feedback is welcome.\n\n\n\nI hope you enjoy.\n\n\nTechnical:\n\nGeneral\nComplete name                            : H:Lewis S08E05 x264 RB58.mp4\nFormat                                   : MPEG-4\nFormat profile                           : Base Media\nCodec ID                                 : isom\nFile size                                : 497 MiB\nDuration                                 : 45mn 34s\nOverall bit rate                         : 1 525 Kbps\nWriting application                      : Lavf54.63.104\n\nVideo\nID                                       : 1\nFormat                                   : AVC\nFormat/Info                              : Advanced Video Codec\nFormat profile                           : &lt;a class=&quot;__cf_email__&quot; href=&quot;/cdn-cgi/l/email-protection&quot; data-cfemail=&quot;82caebe5eac2ceb1acb2&quot;&gt;[email&amp;#160;protected]&lt;/a&gt;&lt;script cf-hash='f9e31' type=&quot;text/javascript&quot;&gt;\n/* &lt;![CDATA[ */!function(){try{var t=&quot;currentScript&quot;in document?document.currentScript:function(){for(var t=document.getElementsByTagName(&quot;script&quot;),e=t.length;e--;)if(t[e].getAttribute(&quot;cf-hash&quot;))return t[e]}();if(t&amp;&amp;t.previousSibling){var e,r,n,i,c=t.previousSibling,a=c.getAttribute(&quot;data-cfemail&quot;);if(a){for(e=&quot;&quot;,r=parseInt(a.substr(0,2),16),n=2;a.length-n;n+=2)i=parseInt(a.substr(n,2),16)^r,e+=String.fromCharCode(i);e=document.createTextNode(e),c.parentNode.replaceChild(e,c)}}}catch(u){}}();/* ]]&gt; */&lt;/script&gt;\nFormat settings, CABAC                   : Yes\nFormat settings, ReFrames                : 4 frames\nCodec ID                                 : avc1\nCodec ID/Info                            : Advanced Video Coding\nDuration                                 : 45mn 34s\nBit rate                                 : 1 400 Kbps\nWidth                                    : 832 pixels\nHeight                                   : 468 pixels\nDisplay aspect ratio                     : 16:9\nFrame rate mode                          : Constant\nFrame rate                               : 25.000 fps\nColor space                              : YUV\nChroma subsampling                       : 4:2:0\nBit depth                                : 8 bits\nScan type                                : Progressive\nBits/(Pixel*Frame)                       : 0.144\nStream size                              : 456 MiB (92%)\nWriting library                          : x264 core 123 r2189 35cf912\nEncoding settings                        : cabac=1 / ref=3 / deblock=1:0:0\n\nAudio\nID                                       : 2\nFormat                                   : AAC\nFormat/Info                              : Advanced Audio Codec\nFormat profile                           : LC\nCodec ID                                 : 40\nDuration                                 : 45mn 34s\nBit rate mode                            : Constant\nBit rate                                 : 117 Kbps\nChannel(s)                               : 2 channels\nChannel positions                        : Front: L R\nSampling rate                            : 48.0 KHz\nCompression mode                         : Lossy\nStream size                              : 38.0 MiB (8%)","torrent":{"xt":"urn:btih:74041e3fdef6be921bc8482d606e2d902a4f733e","amp;dn":"Lewis+S08E05+x264+RB58.mp4","amp;tr":["udp%3A%2F%2Ftracker.openbittorrent.com%3A80","udp%3A%2F%2Fopen.demonii.com%3A1337","udp%3A%2F%2Ftracker.coppersurfer.tk%3A6969","udp%3A%2F%2Fexodus.desync.com%3A6969"],"infoHash":"74041e3fdef6be921bc8482d606e2d902a4f733e","infoHashBuffer":{"type":"Buffer","data":[116,4,30,63,222,246,190,146,27,200,72,45,96,110,45,144,42,79,115,62]},"announce":[],"urlList":[]}}